<svg width="15" height="15" viewBox="0 0 15 15" fill="none" xmlns="http://www.w3.org/2000/svg">
<path d="M10.6303 13.1218L4.38033 13.1278C3.00533 13.129 1.87939 12.0053 1.87783 10.6303L1.87189 4.38026C1.87064 3.00526 2.99439 1.87933 4.36939 1.87776L10.6194 1.87183C11.9944 1.87058 13.1203 2.99433 13.1219 4.36933L13.1278 10.6193C13.1294 11.9946 12.0053 13.1206 10.6303 13.1218Z" fill="url(#paint0_radial_15_55)"/>
<path d="M10.6303 12.25L4.38033 12.2559C3.00533 12.2572 1.87939 11.1334 1.87783 9.75844L1.87189 3.50844C1.87064 2.13344 2.99439 1.0075 4.36939 1.00594L10.6194 1C11.9944 0.998751 13.1203 2.1225 13.1219 3.4975L13.1278 9.7475C13.1294 11.1228 12.0053 12.2488 10.6303 12.25Z" fill="url(#paint1_radial_15_55)"/>
<path d="M7.5 9.6875C6.29406 9.6875 5.3125 8.70625 5.3125 7.5C5.3125 6.29375 6.29406 5.3125 7.5 5.3125C8.70594 5.3125 9.6875 6.29375 9.6875 7.5C9.6875 8.70625 8.70594 9.6875 7.5 9.6875ZM7.5 5.9375C6.63844 5.9375 5.9375 6.63844 5.9375 7.5C5.9375 8.36156 6.63844 9.0625 7.5 9.0625C8.36156 9.0625 9.0625 8.36156 9.0625 7.5C9.0625 6.63844 8.36156 5.9375 7.5 5.9375Z" fill="white"/>
<path d="M9.84375 5.625C10.1026 5.625 10.3125 5.41513 10.3125 5.15625C10.3125 4.89737 10.1026 4.6875 9.84375 4.6875C9.58487 4.6875 9.375 4.89737 9.375 5.15625C9.375 5.41513 9.58487 5.625 9.84375 5.625Z" fill="white"/>
<path d="M9.375 11.5625H5.625C4.41906 11.5625 3.4375 10.5812 3.4375 9.375V5.625C3.4375 4.41875 4.41906 3.4375 5.625 3.4375H9.375C10.5809 3.4375 11.5625 4.41875 11.5625 5.625V9.375C11.5625 10.5812 10.5809 11.5625 9.375 11.5625ZM5.625 4.0625C4.76344 4.0625 4.0625 4.76344 4.0625 5.625V9.375C4.0625 10.2366 4.76344 10.9375 5.625 10.9375H9.375C10.2366 10.9375 10.9375 10.2366 10.9375 9.375V5.625C10.9375 4.76344 10.2366 4.0625 9.375 4.0625H5.625Z" fill="white"/>
<defs>
<radialGradient id="paint0_radial_15_55" cx="0" cy="0" r="1" gradientUnits="userSpaceOnUse" gradientTransform="translate(6.05626 13.1359) scale(14.0309 14.0309)">
<stop stop-color="#FFDD55"/>
<stop offset="0.328" stop-color="#FF543F"/>
<stop offset="0.348" stop-color="#FC5245"/>
<stop offset="0.504" stop-color="#E64771"/>
<stop offset="0.643" stop-color="#D53E91"/>
<stop offset="0.761" stop-color="#CC39A4"/>
<stop offset="0.841" stop-color="#C837AB"/>
</radialGradient>
<radialGradient id="paint1_radial_15_55" cx="0" cy="0" r="1" gradientUnits="userSpaceOnUse" gradientTransform="translate(3.68314 0.859471) scale(9.31656 6.20763)">
<stop stop-color="#4168C9"/>
<stop offset="0.999" stop-color="#4168C9" stop-opacity="0"/>
</radialGradient>
</defs>
</svg>
